<svg xmlns="http://www.w3.org/2000/svg" width="159" height="75" viewBox="0 0 159 75" fill="none">
  <path d="M157.768 20.7678C158.744 19.7915 158.744 18.2085 157.768 17.2322L141.858 1.32233C140.882 0.34602 139.299 0.34602 138.322 1.32233C137.346 2.29864 137.346 3.88155 138.322 4.85786L152.464 19L138.322 33.1421C137.346 34.1184 137.346 35.7014 138.322 36.6777C139.299 37.654 140.882 37.654 141.858 36.6777L157.768 20.7678ZM3 21.5H156V16.5H3V21.5Z" fill="#8A8A8A"/>
  <path d="M1.23224 54.2322C0.25592 55.2085 0.25592 56.7915 1.23224 57.7678L17.1421 73.6777C18.1185 74.654 19.7014 74.654 20.6777 73.6777C21.654 72.7014 21.654 71.1184 20.6777 70.1421L6.53554 56L20.6777 41.8579C21.654 40.8816 21.654 39.2986 20.6777 38.3223C19.7014 37.346 18.1185 37.346 17.1421 38.3223L1.23224 54.2322ZM156 53.5L79.5 53.5V58.5L156 58.5V53.5ZM79.5 53.5L3 53.5V58.5L79.5 58.5V53.5Z" fill="#8A8A8A"/>
</svg>