<svg width="352" height="352" viewBox="0 0 352 352" fill="none" xmlns="http://www.w3.org/2000/svg">
<rect width="352" height="352" fill="none"/>
<path fill-rule="evenodd" clip-rule="evenodd" d="M95.75 200.737L36.8201 154.5L95.75 108.263V139H106.75V104.152C106.75 96.645 98.1006 92.4374 92.1945 97.0713L28.0245 147.419C23.4319 151.023 23.4319 157.977 28.0245 161.581L92.1945 211.929C98.1006 216.563 106.75 212.355 106.75 204.848V174H95.75V200.737Z" fill="black"/>
<path fill-rule="evenodd" clip-rule="evenodd" d="M101.5 134C98.4624 134 96 136.462 96 139.5C96 142.538 98.4624 145 101.5 145H219.5C222.538 145 225 142.538 225 139.5C225 136.462 222.538 134 219.5 134H101.5ZM101 170.5C97.9624 170.5 95.5 172.962 95.5 176C95.5 179.038 97.9624 181.5 101 181.5H252C255.038 181.5 257.5 179.038 257.5 176C257.5 172.962 255.038 170.5 252 170.5H101Z" fill="black"/>
<path fill-rule="evenodd" clip-rule="evenodd" d="M257.25 150.128L316.18 196.365L257.25 242.601V211.865H246.25V246.713C246.25 254.22 254.899 258.427 260.806 253.793L324.975 203.445C329.568 199.842 329.568 192.887 324.975 189.284L260.806 138.936C254.899 134.302 246.25 138.51 246.25 146.017V176.865H257.25V150.128Z" fill="black"/>
<path fill-rule="evenodd" clip-rule="evenodd" d="M257 211.365C257 214.402 254.538 216.865 251.5 216.865H133.5C130.462 216.865 128 214.402 128 211.365C128 208.327 130.462 205.865 133.5 205.865H251.5C254.538 205.865 257 208.327 257 211.365Z" fill="black"/>
</svg>
