<svg xmlns="http://www.w3.org/2000/svg" xmlns:xlink="http://www.w3.org/1999/xlink" version="1.1" id="Layer_1" x="0px" y="0px" width="100%" viewBox="0 0 1080 1080" enable-background="new 0 0 1080 1080" xml:space="preserve">
<path fill="#000000" opacity="1.000000" stroke="none" d=" M245.021408,320.094360   C262.571014,306.886963 279.819183,293.871490 297.067719,280.856506   C307.234039,273.185394 318.197205,271.256104 329.788849,277.069580   C341.179688,282.782379 346.350586,292.641388 346.426361,305.087524   C346.584625,331.084534 346.600067,357.084198 346.372589,383.080139   C346.329773,387.971039 347.385254,389.477295 352.629150,389.467651   C452.120972,389.285004 551.613220,389.339233 651.105408,389.316956   C656.303772,389.315796 661.399353,389.489075 666.135315,392.064789   C674.960144,396.864288 680.160706,407.383453 678.274353,416.847473   C676.175232,427.378387 667.424866,435.321014 656.913757,436.187439   C655.256042,436.324097 653.583618,436.317230 651.917969,436.317322   C543.093201,436.323669 434.268463,436.328522 325.443695,436.318054   C313.213257,436.316864 304.783112,430.885864 300.732697,420.560394   C299.354370,417.046692 299.502472,413.356140 299.494781,409.709320   C299.448639,387.877838 299.480011,366.046112 299.441711,344.214569   C299.439209,342.788757 300.146606,340.860779 298.683929,340.054138   C296.964722,339.106079 295.645355,340.831635 294.380127,341.783539   C241.381088,381.658020 188.410812,421.570801 135.384415,461.408875   C132.312424,463.716827 131.920654,465.144104 135.268875,467.658966   C188.431992,507.589294 241.520279,547.619263 294.652771,587.590393   C295.764984,588.427124 296.889771,590.061401 298.504395,589.250977   C300.146484,588.426758 299.420227,586.559753 299.423126,585.157532   C299.467712,563.659302 299.922302,542.147644 299.310059,520.666809   C298.809601,503.108826 310.185822,493.297089 326.812744,493.315216   C468.801422,493.470123 610.790283,493.404053 752.779114,493.403320   C759.515625,493.403290 759.517883,493.399567 759.519043,486.609741   C759.523621,460.945099 759.403198,435.279633 759.572632,409.616089   C759.690369,391.805176 773.033325,378.311829 789.948730,378.616730   C796.611938,378.736816 802.630188,381.010956 807.964661,385.029114   C858.681946,423.231598 909.394958,461.439758 960.116150,499.637054   C979.504944,514.238342 998.882690,528.854614 1018.323486,543.386353   C1026.985840,549.861389 1032.929932,557.729980 1033.018311,569.106445   C1033.102905,580.016541 1028.030273,588.089417 1019.604614,594.439331   C1001.418640,608.144958 983.232910,621.850891 965.046631,635.556152   C913.145508,674.669556 861.067993,713.552307 809.435669,753.017517   C790.664551,767.365295 768.774719,757.328369 762.171936,742.496033   C760.177673,738.016235 759.483887,733.306152 759.495056,728.402344   C759.554443,702.404541 759.426758,676.405823 759.609863,650.409180   C759.641113,645.969299 758.596313,644.546326 753.860413,644.553467   C654.201843,644.703674 554.542969,644.658203 454.884186,644.688660   C449.328064,644.690369 443.973938,644.346313 439.057007,641.261658   C430.735382,636.041138 425.927765,625.711243 427.986084,616.955688   C430.550049,606.049194 438.907166,598.581116 449.486542,597.789429   C451.145599,597.665344 452.817291,597.680847 454.483124,597.680786   C563.141235,597.675720 671.799316,597.671692 780.457397,597.681091   C792.778687,597.682190 801.108215,603.005249 805.223511,613.350464   C806.684753,617.023621 806.497864,620.881531 806.506409,624.693054   C806.554504,646.191223 806.508423,667.689697 806.577087,689.187805   C806.582520,690.882141 805.553345,693.240906 807.612671,694.151611   C809.217712,694.861450 810.550415,693.065979 811.844849,692.091125   C864.291565,652.591980 916.735596,613.089111 969.176575,573.582153   C974.634827,569.470093 974.652466,569.420898 969.315674,565.397339   C916.755249,525.769897 864.188904,486.150177 811.592896,446.569885   C810.373474,445.652191 809.119690,443.775848 807.328125,444.872223   C805.902100,445.744934 806.572205,447.627563 806.569763,449.060486   C806.532532,471.058685 806.470215,493.057281 806.565247,515.055115   C806.612244,525.941650 802.335999,534.049194 792.178894,538.536438   C787.840637,540.453003 783.153809,540.607666 778.464905,540.607239   C636.976074,540.593506 495.487183,540.593872 353.998322,540.601746   C345.837555,540.602173 346.486450,539.729248 346.483215,548.112732   C346.473450,573.444092 346.537170,598.775635 346.449554,624.106689   C346.395782,639.649963 337.705536,650.428345 322.629181,654.410706   C313.310760,656.872131 305.274597,654.408325 297.838654,648.812500   C280.703552,635.917847 263.526550,623.078796 246.401886,610.170349   C192.905640,569.845337 139.424057,529.500854 85.941483,489.157745   C77.958649,483.136108 73.185982,475.409729 72.982994,465.134491   C72.771454,454.426178 77.532753,446.308044 85.830772,440.054504   C138.270081,400.535583 190.736893,361.053162 243.191895,321.555115   C243.720154,321.157257 244.211517,320.710419 245.021408,320.094360  z"/>
</svg>