  <svg width="100%" height="100%" style={{"overflow":"visible"}} preserveAspectRatio="none" viewBox="0 0 22.49 22.49" fill="none" xmlns="http://www.w3.org/2000/svg"><path fill-rule="evenodd" clip-rule="evenodd" d="M15.6352 10.3473L13.1093 7.82143L14.9351 5.99476L17.46 8.51967L15.6352 10.3473ZM18.8077 7.21599L18.8067 7.21505L16.2406 4.6489C15.5461 3.95629 14.353 3.92348 13.695 4.58423L5.26369 13.0156C4.95815 13.3202 4.76883 13.7251 4.72947 14.1534L4.37426 18.0616C4.34989 18.3381 4.4483 18.6118 4.64512 18.8086C4.82225 18.9858 5.06125 19.0832 5.30774 19.0832C5.3368 19.0832 5.36491 19.0823 5.39303 19.0795L9.30129 18.7243C9.73055 18.6849 10.1345 18.4965 10.4391 18.1919L18.8714 9.75964C19.5537 9.07546 19.5246 7.93391 18.8077 7.21599V7.21599Z" fill="#99BFFF"/></svg>
